<svg width="92" height="10" viewBox="0 0 92 10" fill="none" xmlns="http://www.w3.org/2000/svg">
    <path d="M6.948 1.03196V9.40796H5.268V5.84396H1.68V9.40796H-2.86102e-06V1.03196H1.68V4.47596H5.268V1.03196H6.948ZM14.8776 2.75996V9.40796H13.1856V8.56796C12.9696 8.85596 12.6856 9.08396 12.3336 9.25196C11.9896 9.41196 11.6136 9.49196 11.2056 9.49196C10.6856 9.49196 10.2256 9.38396 9.82556 9.16796C9.42556 8.94396 9.10956 8.61996 8.87756 8.19596C8.65356 7.76396 8.54156 7.25196 8.54156 6.65996V2.75996H10.2216V6.41996C10.2216 6.94796 10.3536 7.35596 10.6176 7.64396C10.8816 7.92396 11.2416 8.06396 11.6976 8.06396C12.1616 8.06396 12.5256 7.92396 12.7896 7.64396C13.0536 7.35596 13.1856 6.94796 13.1856 6.41996V2.75996H14.8776ZM19.0792 9.51596C18.5352 9.51596 18.0472 9.41996 17.6152 9.22796C17.1832 9.02796 16.8392 8.75996 16.5832 8.42396C16.3352 8.08796 16.1992 7.71596 16.1752 7.30796H17.8672C17.8992 7.56396 18.0232 7.77596 18.2392 7.94396C18.4632 8.11196 18.7392 8.19596 19.0672 8.19596C19.3872 8.19596 19.6352 8.13196 19.8112 8.00396C19.9952 7.87596 20.0872 7.71196 20.0872 7.51196C20.0872 7.29596 19.9752 7.13596 19.7512 7.03196C19.5352 6.91996 19.1872 6.79996 18.7072 6.67196C18.2112 6.55196 17.8032 6.42796 17.4832 6.29996C17.1712 6.17196 16.8992 5.97596 16.6672 5.71196C16.4432 5.44796 16.3312 5.09196 16.3312 4.64396C16.3312 4.27596 16.4352 3.93996 16.6432 3.63596C16.8592 3.33196 17.1632 3.09196 17.5552 2.91596C17.9552 2.73996 18.4232 2.65196 18.9592 2.65196C19.7512 2.65196 20.3832 2.85196 20.8552 3.25196C21.3272 3.64396 21.5872 4.17596 21.6352 4.84796H20.0272C20.0032 4.58396 19.8912 4.37596 19.6912 4.22396C19.4992 4.06396 19.2392 3.98396 18.9112 3.98396C18.6072 3.98396 18.3712 4.03996 18.2032 4.15196C18.0432 4.26396 17.9632 4.41996 17.9632 4.61996C17.9632 4.84396 18.0752 5.01596 18.2992 5.13596C18.5232 5.24796 18.8712 5.36396 19.3432 5.48396C19.8232 5.60396 20.2192 5.72796 20.5312 5.85596C20.8432 5.98396 21.1112 6.18396 21.3352 6.45596C21.5672 6.71996 21.6872 7.07196 21.6952 7.51196C21.6952 7.89596 21.5872 8.23996 21.3712 8.54396C21.1632 8.84796 20.8592 9.08796 20.4592 9.26396C20.0672 9.43196 19.6072 9.51596 19.0792 9.51596ZM26.7582 2.66396C27.5502 2.66396 28.1902 2.91596 28.6782 3.41996C29.1662 3.91596 29.4102 4.61196 29.4102 5.50796V9.40796H27.7302V5.73596C27.7302 5.20796 27.5982 4.80396 27.3342 4.52396C27.0702 4.23596 26.7102 4.09196 26.2542 4.09196C25.7902 4.09196 25.4222 4.23596 25.1502 4.52396C24.8862 4.80396 24.7542 5.20796 24.7542 5.73596V9.40796H23.0742V2.75996H24.7542V3.58796C24.9782 3.29996 25.2622 3.07596 25.6062 2.91596C25.9582 2.74796 26.3422 2.66396 26.7582 2.66396ZM31.8598 1.96796C31.5638 1.96796 31.3158 1.87596 31.1158 1.69196C30.9238 1.49996 30.8278 1.26396 30.8278 0.983959C30.8278 0.703959 30.9238 0.471958 31.1158 0.287958C31.3158 0.0959585 31.5638 -4.14848e-05 31.8598 -4.14848e-05C32.1558 -4.14848e-05 32.3998 0.0959585 32.5918 0.287958C32.7918 0.471958 32.8918 0.703959 32.8918 0.983959C32.8918 1.26396 32.7918 1.49996 32.5918 1.69196C32.3998 1.87596 32.1558 1.96796 31.8598 1.96796ZM32.6878 2.75996V9.40796H31.0078V2.75996H32.6878ZM41.527 9.40796L39.679 6.14396H38.887V9.40796H37.207V1.03196H40.351C40.999 1.03196 41.551 1.14796 42.007 1.37996C42.463 1.60396 42.803 1.91196 43.027 2.30396C43.259 2.68796 43.375 3.11996 43.375 3.59996C43.375 4.15196 43.215 4.65196 42.895 5.09996C42.575 5.53996 42.099 5.84396 41.467 6.01196L43.471 9.40796H41.527ZM38.887 4.88396H40.291C40.747 4.88396 41.087 4.77596 41.311 4.55996C41.535 4.33596 41.647 4.02796 41.647 3.63596C41.647 3.25196 41.535 2.95596 41.311 2.74796C41.087 2.53196 40.747 2.42396 40.291 2.42396H38.887V4.88396ZM44.4625 6.05996C44.4625 5.38796 44.5945 4.79196 44.8585 4.27196C45.1305 3.75196 45.4945 3.35196 45.9505 3.07196C46.4145 2.79196 46.9305 2.65196 47.4985 2.65196C47.9945 2.65196 48.4265 2.75196 48.7945 2.95196C49.1705 3.15196 49.4705 3.40396 49.6945 3.70796V2.75996H51.3865V9.40796H49.6945V8.43596C49.4785 8.74796 49.1785 9.00796 48.7945 9.21596C48.4185 9.41596 47.9825 9.51596 47.4865 9.51596C46.9265 9.51596 46.4145 9.37196 45.9505 9.08396C45.4945 8.79596 45.1305 8.39196 44.8585 7.87196C44.5945 7.34396 44.4625 6.73996 44.4625 6.05996ZM49.6945 6.08396C49.6945 5.67596 49.6145 5.32796 49.4545 5.03996C49.2945 4.74396 49.0785 4.51996 48.8065 4.36796C48.5345 4.20796 48.2425 4.12796 47.9305 4.12796C47.6185 4.12796 47.3305 4.20396 47.0665 4.35596C46.8025 4.50796 46.5865 4.73196 46.4185 5.02796C46.2585 5.31596 46.1785 5.65996 46.1785 6.05996C46.1785 6.45996 46.2585 6.81196 46.4185 7.11596C46.5865 7.41196 46.8025 7.63996 47.0665 7.79996C47.3385 7.95996 47.6265 8.03996 47.9305 8.03996C48.2425 8.03996 48.5345 7.96396 48.8065 7.81196C49.0785 7.65196 49.2945 7.42796 49.4545 7.13996C49.6145 6.84396 49.6945 6.49196 49.6945 6.08396ZM61.2833 2.66396C62.0993 2.66396 62.7553 2.91596 63.2513 3.41996C63.7553 3.91596 64.0073 4.61196 64.0073 5.50796V9.40796H62.3273V5.73596C62.3273 5.21596 62.1953 4.81996 61.9313 4.54796C61.6673 4.26796 61.3073 4.12796 60.8513 4.12796C60.3953 4.12796 60.0313 4.26796 59.7593 4.54796C59.4953 4.81996 59.3633 5.21596 59.3633 5.73596V9.40796H57.6833V5.73596C57.6833 5.21596 57.5513 4.81996 57.2873 4.54796C57.0233 4.26796 56.6633 4.12796 56.2073 4.12796C55.7433 4.12796 55.3753 4.26796 55.1033 4.54796C54.8393 4.81996 54.7073 5.21596 54.7073 5.73596V9.40796H53.0273V2.75996H54.7073V3.56396C54.9233 3.28396 55.1993 3.06396 55.5353 2.90396C55.8793 2.74396 56.2553 2.66396 56.6633 2.66396C57.1833 2.66396 57.6473 2.77596 58.0553 2.99996C58.4633 3.21596 58.7793 3.52796 59.0033 3.93596C59.2193 3.55196 59.5313 3.24396 59.9393 3.01196C60.3553 2.77996 60.8033 2.66396 61.2833 2.66396ZM65.1696 6.05996C65.1696 5.38796 65.3016 4.79196 65.5656 4.27196C65.8376 3.75196 66.2056 3.35196 66.6696 3.07196C67.1336 2.79196 67.6496 2.65196 68.2176 2.65196C68.6496 2.65196 69.0616 2.74796 69.4536 2.93996C69.8456 3.12396 70.1576 3.37196 70.3896 3.68396V0.527959H72.0936V9.40796H70.3896V8.42396C70.1816 8.75196 69.8896 9.01596 69.5136 9.21596C69.1376 9.41596 68.7016 9.51596 68.2056 9.51596C67.6456 9.51596 67.1336 9.37196 66.6696 9.08396C66.2056 8.79596 65.8376 8.39196 65.5656 7.87196C65.3016 7.34396 65.1696 6.73996 65.1696 6.05996ZM70.4016 6.08396C70.4016 5.67596 70.3216 5.32796 70.1616 5.03996C70.0016 4.74396 69.7856 4.51996 69.5136 4.36796C69.2416 4.20796 68.9496 4.12796 68.6376 4.12796C68.3256 4.12796 68.0376 4.20396 67.7736 4.35596C67.5096 4.50796 67.2936 4.73196 67.1256 5.02796C66.9656 5.31596 66.8856 5.65996 66.8856 6.05996C66.8856 6.45996 66.9656 6.81196 67.1256 7.11596C67.2936 7.41196 67.5096 7.63996 67.7736 7.79996C68.0456 7.95996 68.3336 8.03996 68.6376 8.03996C68.9496 8.03996 69.2416 7.96396 69.5136 7.81196C69.7856 7.65196 70.0016 7.42796 70.1616 7.13996C70.3216 6.84396 70.4016 6.49196 70.4016 6.08396ZM73.3024 6.05996C73.3024 5.38796 73.4344 4.79196 73.6984 4.27196C73.9704 3.75196 74.3344 3.35196 74.7904 3.07196C75.2544 2.79196 75.7704 2.65196 76.3384 2.65196C76.8344 2.65196 77.2664 2.75196 77.6344 2.95196C78.0104 3.15196 78.3104 3.40396 78.5344 3.70796V2.75996H80.2264V9.40796H78.5344V8.43596C78.3184 8.74796 78.0184 9.00796 77.6344 9.21596C77.2584 9.41596 76.8224 9.51596 76.3264 9.51596C75.7664 9.51596 75.2544 9.37196 74.7904 9.08396C74.3344 8.79596 73.9704 8.39196 73.6984 7.87196C73.4344 7.34396 73.3024 6.73996 73.3024 6.05996ZM78.5344 6.08396C78.5344 5.67596 78.4544 5.32796 78.2944 5.03996C78.1344 4.74396 77.9184 4.51996 77.6464 4.36796C77.3744 4.20796 77.0824 4.12796 76.7704 4.12796C76.4584 4.12796 76.1704 4.20396 75.9064 4.35596C75.6424 4.50796 75.4264 4.73196 75.2584 5.02796C75.0984 5.31596 75.0184 5.65996 75.0184 6.05996C75.0184 6.45996 75.0984 6.81196 75.2584 7.11596C75.4264 7.41196 75.6424 7.63996 75.9064 7.79996C76.1784 7.95996 76.4664 8.03996 76.7704 8.03996C77.0824 8.03996 77.3744 7.96396 77.6464 7.81196C77.9184 7.65196 78.1344 7.42796 78.2944 7.13996C78.4544 6.84396 78.5344 6.49196 78.5344 6.08396ZM85.5512 2.66396C86.3432 2.66396 86.9832 2.91596 87.4712 3.41996C87.9592 3.91596 88.2032 4.61196 88.2032 5.50796V9.40796H86.5232V5.73596C86.5232 5.20796 86.3912 4.80396 86.1272 4.52396C85.8632 4.23596 85.5032 4.09196 85.0472 4.09196C84.5832 4.09196 84.2152 4.23596 83.9432 4.52396C83.6792 4.80396 83.5472 5.20796 83.5472 5.73596V9.40796H81.8672V2.75996H83.5472V3.58796C83.7712 3.29996 84.0552 3.07596 84.3992 2.91596C84.7512 2.74796 85.1352 2.66396 85.5512 2.66396ZM90.6528 1.96796C90.3568 1.96796 90.1088 1.87596 89.9088 1.69196C89.7168 1.49996 89.6208 1.26396 89.6208 0.983959C89.6208 0.703959 89.7168 0.471958 89.9088 0.287958C90.1088 0.0959585 90.3568 -4.14848e-05 90.6528 -4.14848e-05C90.9488 -4.14848e-05 91.1928 0.0959585 91.3848 0.287958C91.5848 0.471958 91.6848 0.703959 91.6848 0.983959C91.6848 1.26396 91.5848 1.49996 91.3848 1.69196C91.1928 1.87596 90.9488 1.96796 90.6528 1.96796ZM91.4808 2.75996V9.40796H89.8008V2.75996H91.4808Z"
          fill="url(#paint0_linear_37_36)"/>
    <defs>
        <linearGradient id="paint0_linear_37_36" x1="46.172" y1="-3.59204" x2="46.172" y2="14.408"
                        gradientUnits="userSpaceOnUse">
            <stop offset="0.505208" stop-color="#EE5626"/>
            <stop offset="0.895833" stop-color="#35109F"/>
        </linearGradient>
    </defs>
</svg>
