<svg width="110" height="35" viewBox="0 0 110 35" fill="none" xmlns="http://www.w3.org/2000/svg">
    <rect x="1" y="1" width="108" height="33" rx="7" stroke="url(#paint0_linear_37_110)" stroke-width="2"
          stroke-linejoin="round"/>
    <path d="M15.58 17.704C16.052 17.792 16.44 18.028 16.744 18.412C17.048 18.796 17.2 19.236 17.2 19.732C17.2 20.18 17.088 20.576 16.864 20.92C16.648 21.256 16.332 21.52 15.916 21.712C15.5 21.904 15.008 22 14.44 22H10.828V13.624H14.284C14.852 13.624 15.34 13.716 15.748 13.9C16.164 14.084 16.476 14.34 16.684 14.668C16.9 14.996 17.008 15.368 17.008 15.784C17.008 16.272 16.876 16.68 16.612 17.008C16.356 17.336 16.012 17.568 15.58 17.704ZM12.508 17.08H14.044C14.444 17.08 14.752 16.992 14.968 16.816C15.184 16.632 15.292 16.372 15.292 16.036C15.292 15.7 15.184 15.44 14.968 15.256C14.752 15.072 14.444 14.98 14.044 14.98H12.508V17.08ZM14.2 20.632C14.608 20.632 14.924 20.536 15.148 20.344C15.38 20.152 15.496 19.88 15.496 19.528C15.496 19.168 15.376 18.888 15.136 18.688C14.896 18.48 14.572 18.376 14.164 18.376H12.508V20.632H14.2ZM18.1069 18.652C18.1069 17.98 18.2389 17.384 18.5029 16.864C18.7749 16.344 19.1389 15.944 19.5949 15.664C20.0589 15.384 20.5749 15.244 21.1429 15.244C21.6389 15.244 22.0709 15.344 22.4389 15.544C22.8149 15.744 23.1149 15.996 23.3389 16.3V15.352H25.0309V22H23.3389V21.028C23.1229 21.34 22.8229 21.6 22.4389 21.808C22.0629 22.008 21.6269 22.108 21.1309 22.108C20.5709 22.108 20.0589 21.964 19.5949 21.676C19.1389 21.388 18.7749 20.984 18.5029 20.464C18.2389 19.936 18.1069 19.332 18.1069 18.652ZM23.3389 18.676C23.3389 18.268 23.2589 17.92 23.0989 17.632C22.9389 17.336 22.7229 17.112 22.4509 16.96C22.1789 16.8 21.8869 16.72 21.5749 16.72C21.2629 16.72 20.9749 16.796 20.7109 16.948C20.4469 17.1 20.2309 17.324 20.0629 17.62C19.9029 17.908 19.8229 18.252 19.8229 18.652C19.8229 19.052 19.9029 19.404 20.0629 19.708C20.2309 20.004 20.4469 20.232 20.7109 20.392C20.9829 20.552 21.2709 20.632 21.5749 20.632C21.8869 20.632 22.1789 20.556 22.4509 20.404C22.7229 20.244 22.9389 20.02 23.0989 19.732C23.2589 19.436 23.3389 19.084 23.3389 18.676ZM26.2397 18.676C26.2397 17.988 26.3798 17.388 26.6598 16.876C26.9398 16.356 27.3278 15.956 27.8238 15.676C28.3198 15.388 28.8878 15.244 29.5278 15.244C30.3518 15.244 31.0318 15.452 31.5678 15.868C32.1118 16.276 32.4758 16.852 32.6598 17.596H30.8478C30.7518 17.308 30.5878 17.084 30.3558 16.924C30.1318 16.756 29.8518 16.672 29.5158 16.672C29.0358 16.672 28.6558 16.848 28.3758 17.2C28.0958 17.544 27.9558 18.036 27.9558 18.676C27.9558 19.308 28.0958 19.8 28.3758 20.152C28.6558 20.496 29.0358 20.668 29.5158 20.668C30.1958 20.668 30.6398 20.364 30.8478 19.756H32.6598C32.4758 20.476 32.1118 21.048 31.5678 21.472C31.0238 21.896 30.3438 22.108 29.5278 22.108C28.8878 22.108 28.3198 21.968 27.8238 21.688C27.3278 21.4 26.9398 21 26.6598 20.488C26.3798 19.968 26.2397 19.364 26.2397 18.676ZM37.8265 22L35.5705 19.168V22H33.8905V13.12H35.5705V18.172L37.8025 15.352H39.9865L37.0585 18.688L40.0105 22H37.8265ZM45.7137 16.732V19.948C45.7137 20.172 45.7657 20.336 45.8697 20.44C45.9817 20.536 46.1657 20.584 46.4217 20.584H47.2017V22H46.1457C44.7297 22 44.0217 21.312 44.0217 19.936V16.732H43.2297V15.352H44.0217V13.708H45.7137V15.352H47.2017V16.732H45.7137ZM51.362 22.108C50.722 22.108 50.146 21.968 49.634 21.688C49.122 21.4 48.718 20.996 48.422 20.476C48.134 19.956 47.99 19.356 47.99 18.676C47.99 17.996 48.138 17.396 48.434 16.876C48.738 16.356 49.15 15.956 49.67 15.676C50.19 15.388 50.77 15.244 51.41 15.244C52.05 15.244 52.63 15.388 53.15 15.676C53.67 15.956 54.078 16.356 54.374 16.876C54.678 17.396 54.83 17.996 54.83 18.676C54.83 19.356 54.674 19.956 54.362 20.476C54.058 20.996 53.642 21.4 53.114 21.688C52.594 21.968 52.01 22.108 51.362 22.108ZM51.362 20.644C51.666 20.644 51.95 20.572 52.214 20.428C52.486 20.276 52.702 20.052 52.862 19.756C53.022 19.46 53.102 19.1 53.102 18.676C53.102 18.044 52.934 17.56 52.598 17.224C52.27 16.88 51.866 16.708 51.386 16.708C50.906 16.708 50.502 16.88 50.174 17.224C49.854 17.56 49.694 18.044 49.694 18.676C49.694 19.308 49.85 19.796 50.162 20.14C50.482 20.476 50.882 20.644 51.362 20.644ZM60.8778 16.732V19.948C60.8778 20.172 60.9298 20.336 61.0338 20.44C61.1458 20.536 61.3298 20.584 61.5858 20.584H62.3658V22H61.3098C59.8938 22 59.1858 21.312 59.1858 19.936V16.732H58.3938V15.352H59.1858V13.708H60.8778V15.352H62.3658V16.732H60.8778ZM66.5261 22.108C65.8861 22.108 65.3101 21.968 64.7981 21.688C64.2861 21.4 63.8821 20.996 63.5861 20.476C63.2981 19.956 63.1541 19.356 63.1541 18.676C63.1541 17.996 63.3021 17.396 63.5981 16.876C63.9021 16.356 64.3141 15.956 64.8341 15.676C65.3541 15.388 65.9341 15.244 66.5741 15.244C67.2141 15.244 67.7941 15.388 68.3141 15.676C68.8341 15.956 69.2421 16.356 69.5381 16.876C69.8421 17.396 69.9941 17.996 69.9941 18.676C69.9941 19.356 69.8381 19.956 69.5261 20.476C69.2221 20.996 68.8061 21.4 68.2781 21.688C67.7581 21.968 67.1741 22.108 66.5261 22.108ZM66.5261 20.644C66.8301 20.644 67.1141 20.572 67.3781 20.428C67.6501 20.276 67.8661 20.052 68.0261 19.756C68.1861 19.46 68.2661 19.1 68.2661 18.676C68.2661 18.044 68.0981 17.56 67.7621 17.224C67.4341 16.88 67.0301 16.708 66.5501 16.708C66.0701 16.708 65.6661 16.88 65.3381 17.224C65.0181 17.56 64.8581 18.044 64.8581 18.676C64.8581 19.308 65.0141 19.796 65.3261 20.14C65.6461 20.476 66.0461 20.644 66.5261 20.644ZM72.9064 16.312C73.1224 16.008 73.4184 15.756 73.7944 15.556C74.1784 15.348 74.6144 15.244 75.1024 15.244C75.6704 15.244 76.1824 15.384 76.6384 15.664C77.1024 15.944 77.4664 16.344 77.7304 16.864C78.0024 17.376 78.1384 17.972 78.1384 18.652C78.1384 19.332 78.0024 19.936 77.7304 20.464C77.4664 20.984 77.1024 21.388 76.6384 21.676C76.1824 21.964 75.6704 22.108 75.1024 22.108C74.6144 22.108 74.1824 22.008 73.8064 21.808C73.4384 21.608 73.1384 21.356 72.9064 21.052V25.168H71.2264V15.352H72.9064V16.312ZM76.4224 18.652C76.4224 18.252 76.3384 17.908 76.1704 17.62C76.0104 17.324 75.7944 17.1 75.5224 16.948C75.2584 16.796 74.9704 16.72 74.6584 16.72C74.3544 16.72 74.0664 16.8 73.7944 16.96C73.5304 17.112 73.3144 17.336 73.1464 17.632C72.9864 17.928 72.9064 18.276 72.9064 18.676C72.9064 19.076 72.9864 19.424 73.1464 19.72C73.3144 20.016 73.5304 20.244 73.7944 20.404C74.0664 20.556 74.3544 20.632 74.6584 20.632C74.9704 20.632 75.2584 20.552 75.5224 20.392C75.7944 20.232 76.0104 20.004 76.1704 19.708C76.3384 19.412 76.4224 19.06 76.4224 18.652Z"
          fill="black"/>
    <path d="M93 22.8125V13.1875" stroke="black" stroke-width="2" stroke-linecap="round" stroke-linejoin="round"/>
    <path d="M89.0625 17.125L93 13.1875L96.9375 17.125" stroke="black" stroke-width="2" stroke-linecap="round"
          stroke-linejoin="round"/>
    <defs>
        <linearGradient id="paint0_linear_37_110" x1="55" y1="0" x2="55" y2="35" gradientUnits="userSpaceOnUse">
            <stop offset="0.505208" stop-color="#EE5626"/>
            <stop offset="0.895833" stop-color="#35109F"/>
        </linearGradient>
    </defs>
</svg>
