<svg width="42" height="44" viewBox="0 0 42 44" fill="none" xmlns="http://www.w3.org/2000/svg">
    <path d="M28.875 9.60791H13.125C9.99213 9.60791 6.98757 10.9094 4.7723 13.226C2.55703 15.5427 1.3125 18.6847 1.3125 21.9609C1.3125 25.2371 2.55703 28.3792 4.7723 30.6958C6.98757 33.0125 9.99213 34.3139 13.125 34.3139H28.875C32.0079 34.3139 35.0124 33.0125 37.2277 30.6958C39.443 28.3792 40.6875 25.2371 40.6875 21.9609C40.6875 18.6847 39.443 15.5427 37.2277 13.226C35.0124 10.9094 32.0079 9.60791 28.875 9.60791ZM28.875 28.8237C27.5771 28.8237 26.3083 28.4212 25.2291 27.6671C24.1499 26.913 23.3087 25.8412 22.812 24.5872C22.3153 23.3332 22.1854 21.9533 22.4386 20.6221C22.6918 19.2908 23.3168 18.068 24.2346 17.1082C25.1524 16.1484 26.3217 15.4948 27.5947 15.23C28.8677 14.9652 30.1872 15.1011 31.3864 15.6205C32.5855 16.14 33.6104 17.0196 34.3315 18.1482C35.0526 19.2767 35.4375 20.6036 35.4375 21.9609C35.4375 23.781 34.7461 25.5266 33.5154 26.8136C32.2847 28.1007 30.6155 28.8237 28.875 28.8237Z"
          fill="black"/>
</svg>
