<svg width="40" height="54" viewBox="0 0 40 54" fill="none" xmlns="http://www.w3.org/2000/svg">
    <circle cx="20" cy="27" r="19" stroke="url(#paint0_linear_37_46)" stroke-width="2"/>
    <path d="M25.008 22.72C24.552 21.88 23.892 21.244 23.028 20.812C22.188 20.356 21.192 20.128 20.04 20.128C18.048 20.128 16.452 20.788 15.252 22.108C14.052 23.404 13.452 25.144 13.452 27.328C13.452 29.656 14.076 31.48 15.324 32.8C16.596 34.096 18.336 34.744 20.544 34.744C22.056 34.744 23.328 34.36 24.36 33.592C25.416 32.824 26.184 31.72 26.664 30.28H18.852V25.744H32.244V31.468C31.788 33.004 31.008 34.432 29.904 35.752C28.824 37.072 27.444 38.14 25.764 38.956C24.084 39.772 22.188 40.18 20.076 40.18C17.58 40.18 15.348 39.64 13.38 38.56C11.436 37.456 9.912 35.932 8.808 33.988C7.728 32.044 7.188 29.824 7.188 27.328C7.188 24.832 7.728 22.612 8.808 20.668C9.912 18.7 11.436 17.176 13.38 16.096C15.324 14.992 17.544 14.44 20.04 14.44C23.064 14.44 25.608 15.172 27.672 16.636C29.76 18.1 31.14 20.128 31.812 22.72H25.008Z"
          fill="#282828"/>
    <defs>
        <linearGradient id="paint0_linear_37_46" x1="20" y1="7" x2="20" y2="47" gradientUnits="userSpaceOnUse">
            <stop offset="0.505208" stop-color="#EE5626"/>
            <stop offset="0.895833" stop-color="#35109F"/>
        </linearGradient>
    </defs>
</svg>
