<svg width="37" height="37" viewBox="0 0 37 37" fill="none" xmlns="http://www.w3.org/2000/svg">
    <circle cx="18.5" cy="18.5" r="17.5" stroke="black" stroke-width="2"/>
    <path d="M27.192 15.067L24.8355 17.4236C24.365 22.883 19.7609 27.125 14.2501 27.125C13.1154 27.125 12.1802 26.9451 11.4706 26.5903C10.8979 26.304 10.6633 25.9966 10.6051 25.9092C10.5528 25.8309 10.519 25.7418 10.506 25.6485C10.4931 25.5553 10.5014 25.4603 10.5303 25.3707C10.5592 25.2811 10.6079 25.1992 10.6729 25.1311C10.7379 25.0629 10.8175 25.0104 10.9056 24.9773C10.9257 24.9697 12.7687 24.2619 13.9599 22.9142C13.219 22.3866 12.5669 21.7443 12.0282 21.0114C10.9572 19.558 9.82457 17.034 10.5101 13.2632C10.5305 13.151 10.5813 13.0465 10.6568 12.9611C10.7324 12.8756 10.8299 12.8125 10.9387 12.7785C11.0476 12.7445 11.1637 12.7409 11.2745 12.7681C11.3852 12.7954 11.4864 12.8525 11.567 12.9331C11.5946 12.9606 14.1953 15.5246 17.3747 16.3528L17.3751 15.8747C17.3818 14.8741 17.7856 13.917 18.4977 13.2139C19.2098 12.5108 20.1719 12.1193 21.1726 12.1253C21.8227 12.1343 22.4593 12.3118 23.0203 12.6404C23.5813 12.9689 24.0475 13.4374 24.3733 14L26.7501 14C26.8737 14 26.9945 14.0367 27.0973 14.1054C27.2001 14.174 27.2802 14.2717 27.3275 14.3859C27.3748 14.5001 27.3872 14.6257 27.3631 14.747C27.339 14.8682 27.2794 14.9796 27.192 15.067Z"
          fill="black"/>
</svg>
